<svg xmlns="http://www.w3.org/2000/svg" viewBox="0 0 28.84 15.39"><g id="Layer_2" data-name="Layer 2"><g id="Layer_2-2" data-name="Layer 2"><polygon points="28.84 0.19 28.84 10.71 20.71 15.39 14.48 13.23 6.97 13.26 6.97 11.58 14.16 11.58 14.16 10.26 8.97 10.26 8.97 8.55 11.97 8.55 11.97 7.29 0 7.29 0 5.48 14.42 5.48 14.42 4.45 6.07 4.45 6.07 2.77 10.84 2.77 10.84 1.42 6.58 1.42 6.58 0 13.61 0 20.19 5.26 28.84 0.19"/><polygon points="3.81 8.61 7.81 8.61 7.81 10.29 3.45 10.29 3.45 8.61 3.81 8.61"/></g></g></svg>